<?xml version="1.0" encoding="utf-8"?>
<!-- Generator: Adobe Illustrator 27.9.0, SVG Export Plug-In . SVG Version: 6.00 Build 0)  -->
<svg version="1.1" id="Layer_1" xmlns="http://www.w3.org/2000/svg" xmlns:xlink="http://www.w3.org/1999/xlink" x="0px" y="0px"
	 viewBox="0 0 3399.96 3399.96" style="enable-background:new 0 0 3399.96 3399.96;" xml:space="preserve">
<style type="text/css">
	.st0{fill:url(#SVGID_1_);}
	.st1{fill:url(#SVGID_00000062879534565370046180000004193850151851124660_);}
	.st2{fill:url(#SVGID_00000164480784897367480840000003468301013661709195_);}
	.st3{fill:url(#SVGID_00000121249799434802280920000011488700299717924484_);}
	.st4{fill:url(#SVGID_00000113327157102269712080000015459190040240218301_);}
	.st5{fill:#231F20;}
	.st6{fill:url(#SVGID_00000001634901103623166400000016373678357834139825_);}
	.st7{fill:url(#SVGID_00000011016964291543046270000012344832993029959344_);}
	.st8{fill:url(#SVGID_00000074438561495745479980000003975207959572117144_);}
	.st9{fill:url(#SVGID_00000137844284987914301740000008598151099929032322_);}
	.st10{fill:url(#SVGID_00000134245705757922087290000017493761248665777851_);}
</style>
<g>
	<g>
		<linearGradient id="SVGID_1_" gradientUnits="userSpaceOnUse" x1="720.2554" y1="2878.6448" x2="2475.7854" y2="990.6219">
			<stop  offset="3.276727e-07" style="stop-color:#1C2E4C"/>
			<stop  offset="0.1482" style="stop-color:#1E3250"/>
			<stop  offset="0.298" style="stop-color:#233D5C"/>
			<stop  offset="0.4485" style="stop-color:#2C4F70"/>
			<stop  offset="0.5996" style="stop-color:#39698D"/>
			<stop  offset="0.7512" style="stop-color:#498AB1"/>
			<stop  offset="0.9012" style="stop-color:#5DB2DE"/>
			<stop  offset="1" style="stop-color:#6CD0FF"/>
		</linearGradient>
		<path class="st0" d="M2321.01,1643.65c51.62,366.14-65.99,873.32-236.06,1171.43c-0.32-0.16-0.2-0.09-0.53-0.26
			c100.47-253.9,179.84-689.03,139-978.74c-15.37-108.96-41.68-215.02-77.49-316.63c2.54,7.2-150.66,126.72-165.8,140.68
			c-54.22,50.02-106.33,102.32-156.16,156.72c-192.99,210.71-318.09,457.43-480.91,689.07
			c-82.44,117.28-221.93,299.58-378.14,308.55c-61.36,3.52-122.67-15.83-170.86-54c-55.5-43.97-81.71-102.81-93.78-171.16
			c-13.02-73.73-14.14-151.63-15.11-226.42c-0.93-71.45,1.79-142.94,8.17-214.11c12.51-139.6,39.14-277.91,79.35-412.18
			c39.59-132.21,92.3-260.47,157.02-382.36c64.33-121.16,140.51-236.01,227.07-342.42c26.83-32.98,54.65-65.16,83.43-96.46
			c72.54-78.89,151.04-152.3,234.73-219.24c62.8-50.23,130.99-108.82,215.77-111.18c81.28-2.26,158.15,49.52,191.09,123.24
			c2.78,6.24,0.24,13.57-5.8,16.77c-117.85,62.41-227.14,137.69-326.28,223.75c-56.41,48.97-109.5,101.42-159.04,156.95
			c-187.4,210.04-322.98,465.14-391.54,738.19c-14.7,58.56-26.35,117.89-34.86,177.67c-8.43,59.19-22.7,127.1-11.93,186.39
			c19.01,104.7,141.91,146.41,226.68,88.81c81.14-55.14,130.45-164.81,188.77-241.81c66.89-88.3,139.78-172.05,219.05-249.46
			c153.99-150.4,328.47-280.99,519.79-386.94c-80.22-187.87-193.21-357.59-328.79-498.38c-8.58-8.91-6.73-23.46,3.84-29.89
			c46.12-28.05,87.65-54.62,136.26-78.89c7.99-3.97,17.65-2.04,23.43,4.76c128.95,151.23,236.48,332.32,306.4,530.16
			c147.46-69.46,303.7-124.77,467.17-164c-156.12,67.38-303.71,149.26-441.33,243.72
			C2294.55,1496.87,2310.58,1569.62,2321.01,1643.65z"/>
	</g>
	<g>
		<g>
			
				<linearGradient id="SVGID_00000127028137120127277750000011077174122420885398_" gradientUnits="userSpaceOnUse" x1="620.5527" y1="2785.939" x2="2376.0828" y2="897.916">
				<stop  offset="3.276727e-07" style="stop-color:#1C2E4C"/>
				<stop  offset="0.1482" style="stop-color:#1E3250"/>
				<stop  offset="0.298" style="stop-color:#233D5C"/>
				<stop  offset="0.4485" style="stop-color:#2C4F70"/>
				<stop  offset="0.5996" style="stop-color:#39698D"/>
				<stop  offset="0.7512" style="stop-color:#498AB1"/>
				<stop  offset="0.9012" style="stop-color:#5DB2DE"/>
				<stop  offset="1" style="stop-color:#6CD0FF"/>
			</linearGradient>
			<path style="fill:url(#SVGID_00000127028137120127277750000011077174122420885398_);" d="M1751.46,1563.9
				c-0.29,2.25-0.63,4.5-1.01,6.72c0,0,0.03,0.03,0,0.06c-4.6,28.53-14.17,55.35-27.8,79.61c-0.06,0.09-0.09,0.18-0.15,0.26l0,0.03
				c-0.99,1.81-2.03,3.57-3.11,5.35c0,0.03,0,0.03,0,0.03c-3.38,4.04-8.42,6.59-14.08,6.6c-10.16,0.02-18.41-8.19-18.43-18.34
				c-0.01-2.54,0.51-4.96,1.44-7.18c0,0,0-0.03,0.03-0.06c0.76-1.23,1.48-2.48,2.18-3.74c0-0.03,0-0.06,0.03-0.09
				c12-21.22,20.35-44.74,24.2-69.77c0.17-0.96,0.32-1.93,0.43-2.92v-0.03c1.88-8.15,9.16-14.21,17.86-14.23
				C1743.01,1546.17,1751.12,1554.03,1751.46,1563.9z"/>
			
				<linearGradient id="SVGID_00000042708663629535082840000010034590681787869321_" gradientUnits="userSpaceOnUse" x1="435.6133" y1="2613.9775" x2="2191.1433" y2="725.9548">
				<stop  offset="3.276727e-07" style="stop-color:#1C2E4C"/>
				<stop  offset="0.1482" style="stop-color:#1E3250"/>
				<stop  offset="0.298" style="stop-color:#233D5C"/>
				<stop  offset="0.4485" style="stop-color:#2C4F70"/>
				<stop  offset="0.5996" style="stop-color:#39698D"/>
				<stop  offset="0.7512" style="stop-color:#498AB1"/>
				<stop  offset="0.9012" style="stop-color:#5DB2DE"/>
				<stop  offset="1" style="stop-color:#6CD0FF"/>
			</linearGradient>
			<path style="fill:url(#SVGID_00000042708663629535082840000010034590681787869321_);" d="M1744.84,1468.08
				c0.02,10.19-8.19,18.47-18.37,18.49c-7.5,0.02-13.96-4.43-16.84-10.85c-0.44-1.66-0.94-3.3-1.44-4.93
				c-25.98-84.91-105.06-146.57-198.47-146.34c-114.34,0.28-206.79,93.21-206.51,207.52c0.28,114.34,93.18,206.82,207.52,206.54
				c25.13-0.06,49.2-4.59,71.49-12.84c1.87-0.71,3.7-1.44,5.57-2.17c0.03-0.03,0.06-0.03,0.06-0.03c1.2-0.27,2.45-0.39,3.74-0.39
				c10.25-0.03,18.56,8.24,18.58,18.49c0.02,6.36-3.15,11.95-8.02,15.32c-0.96,0.41-1.92,0.79-2.89,1.17
				c-0.79,0.32-1.57,0.65-2.39,0.94c-0.85,0.32-1.69,0.65-2.57,0.94c-26.01,9.61-54.14,14.87-83.48,14.94
				c-45.19,0.11-87.54-12.1-123.88-33.53l-0.03-0.03c-2.14-2.13-4.77-3.75-7.69-4.71c-1.93-0.64-4-0.98-6.16-0.98
				c-10.83,0.03-19.57,8.8-19.54,19.63c0.01,6.01,2.71,11.38,6.98,14.93c1.49,1.28,3.19,2.33,5,3.08c0.03,0.03,0.03,0,0.03,0
				c36.16,21.72,77.62,35.51,121.94,39.05l0.23,0c9.9,1.03,17.6,9.36,17.62,19.49c0.03,10.83-8.74,19.64-19.6,19.66l-0.2,0
				c-0.99-0.08-1.99-0.17-2.98-0.28c-0.06,0.03-0.15,0-0.2-0.03c-163.85-14.05-292.65-151.31-293.06-318.92
				c-0.41-169.36,130.46-308.39,296.73-320.8c0.03,0,0.03,0,0.03,0c1.75-0.15,3.53-0.24,5.28-0.33c0.06-0.03,0.09-0.03,0.12,0
				c10.31,0.68,18.44,9.24,18.47,19.72c0.02,9.37-6.47,17.24-15.19,19.3l-0.03,0c-2.28,0.09-4.49,0.24-6.77,0.43
				c-0.03,0.03-0.06,0-0.06,0c-35.46,2.8-69.06,12.14-99.62,26.84c-2.71,0.68-5.19,1.94-7.32,3.67c-4.52,3.54-7.39,9.1-7.38,15.28
				c0.03,10.8,8.8,19.54,19.58,19.51c2.01,0,3.94-0.3,5.75-0.89c0.03,0,0.03,0,0.06,0c1.98-0.62,3.82-1.56,5.48-2.76
				c31.84-15.37,67.52-24.04,105.23-24.13c109.73-0.27,202.67,72.13,233.27,171.83c0.26,0.85,0.53,1.69,0.76,2.54
				c0.38,1.25,0.74,2.51,1.09,3.76c0,0,0,0,0,0.03C1744.8,1466.83,1744.84,1467.47,1744.84,1468.08z"/>
			
				<linearGradient id="SVGID_00000075141464278470245290000010785326712974207380_" gradientUnits="userSpaceOnUse" x1="507.6144" y1="2680.926" x2="2263.1445" y2="792.9031">
				<stop  offset="3.276727e-07" style="stop-color:#1C2E4C"/>
				<stop  offset="0.1482" style="stop-color:#1E3250"/>
				<stop  offset="0.298" style="stop-color:#233D5C"/>
				<stop  offset="0.4485" style="stop-color:#2C4F70"/>
				<stop  offset="0.5996" style="stop-color:#39698D"/>
				<stop  offset="0.7512" style="stop-color:#498AB1"/>
				<stop  offset="0.9012" style="stop-color:#5DB2DE"/>
				<stop  offset="1" style="stop-color:#6CD0FF"/>
			</linearGradient>
			<path style="fill:url(#SVGID_00000075141464278470245290000010785326712974207380_);" d="M1831.16,1530.69
				c0.04,15.18-0.98,30.13-3.01,44.76c0,0.12,0,0.26-0.03,0.38c-0.23,1.75-0.49,3.59-0.8,5.34c0,0.06-0.03,0.12-0.03,0.15
				c-2.49,8.06-9.98,13.92-18.85,13.94c-10.92,0.03-19.78-8.8-19.81-19.71c0-0.23,0-0.47,0.03-0.67c-0.03-0.03,0-0.06,0-0.06
				c-0.03-0.03-0.03-0.03,0.03-0.03c0.2-1.43,0.43-2.83,0.6-4.26l0-0.03c1.84-12.96,2.74-26.22,2.71-39.71
				c-0.32-132.73-92.4-243.84-216.06-273.37c-0.32-0.09-0.61-0.14-0.93-0.23l-0.09,0c-1.49-0.38-3.01-0.72-4.53-1.04
				c-0.38-0.09-0.79-0.17-1.17-0.23h-0.03c-7.13-3.02-12.14-10.04-12.16-18.27c-0.03-10.98,8.85-19.9,19.83-19.93
				c0.41,0,0.82,0,1.23,0.06c0.03-0.03,0.06-0.03,0.09,0.03c2.07,0.4,4.12,0.87,6.16,1.39h0.03
				C1725.57,1252.56,1830.79,1379.25,1831.16,1530.69z"/>
			
				<linearGradient id="SVGID_00000003806653235477301890000015812756399698323901_" gradientUnits="userSpaceOnUse" x1="472.1256" y1="2647.9277" x2="2227.6558" y2="759.9048">
				<stop  offset="3.276727e-07" style="stop-color:#1C2E4C"/>
				<stop  offset="0.1482" style="stop-color:#1E3250"/>
				<stop  offset="0.298" style="stop-color:#233D5C"/>
				<stop  offset="0.4485" style="stop-color:#2C4F70"/>
				<stop  offset="0.5996" style="stop-color:#39698D"/>
				<stop  offset="0.7512" style="stop-color:#498AB1"/>
				<stop  offset="0.9012" style="stop-color:#5DB2DE"/>
				<stop  offset="1" style="stop-color:#6CD0FF"/>
			</linearGradient>
			<path style="fill:url(#SVGID_00000003806653235477301890000015812756399698323901_);" d="M1622.28,1423.67
				c8.66,12.59,13.76,27.82,13.8,44.26c0.11,43.36-34.96,78.59-78.31,78.69c-43.36,0.11-78.59-34.96-78.69-78.31
				c-0.11-43.36,34.96-78.59,78.31-78.69c8.63-0.02,16.93,1.37,24.71,3.93c-21.61-11.29-46.18-17.67-72.26-17.61
				c-85.91,0.21-155.38,70.02-155.17,155.93s70.02,155.38,155.93,155.17s155.38-70.02,155.17-155.93
				C1665.67,1489.37,1649.11,1451.54,1622.28,1423.67z"/>
		</g>
	</g>
</g>
</svg>
